<?xml version="1.0" encoding="utf-8"?>
<COLLADA xmlns="http://www.collada.org/2005/11/COLLADASchema" version="1.4.1" xmlns:xsi="http://www.w3.org/2001/XMLSchema-instance">
  <asset>
    <contributor>
      <author>Blender User</author>
      <authoring_tool>Blender 4.5.3 LTS commit date:2025-09-08, commit time:12:46, hash:67807e1800cc</authoring_tool>
    </contributor>
    <created>2025-10-10T15:20:37</created>
    <modified>2025-10-10T15:20:37</modified>
    <unit name="meter" meter="1"/>
    <up_axis>Z_UP</up_axis>
  </asset>
  <library_images/>
  <library_geometries>
    <geometry id="Cube_001-mesh" name="Cube.001">
      <mesh>
        <source id="Cube_001-mesh-positions">
          <float_array id="Cube_001-mesh-positions-array" count="558">-0.5932967 -0.8878266 -0.9814843 -1 -1 1 -0.6506056 0.9881604 -0.9999958 -1 1 1 0.979035 -0.8753359 -0.9999965 1.076692 -0.9233075 1 1 1 -1 1 1 1 5.001343 1 1 4.65759 0.9541088 -1 4.721698 -0.8830396 -0.9953857 4.910103 -0.9087597 1 3.017679 -0.8715358 -0.9999972 3.078429 -0.9222424 1 3.000672 1 1 -0.6312966 0.02887189 -0.9999997 -1 0 1 1.072215 -0.07221537 1 4.764037 -0.002654194 -1 4.91576 -0.08558267 1 3.081107 -0.08043509 1 0 1 -1 0 1 1 0.0355454 -0.8529826 -0.9999999 0 -1 1 0 0 1 0 0 -1 3.960772 -0.8557238 -0.9999998 4.001004 0.9999983 -1 4.092248 -0.9087597 1 4.001008 1 1 4.08659 -0.08558267 1 2.093202 -0.9071337 1 2.000336 1 1 2.017451 -0.8763874 -0.9999969 2.000336 1 -1 2.089033 -0.08869707 1 -0.5905749 -0.4626532 -0.9954535 1.072215 -0.4277846 1 4.91576 -0.4144173 1 -1 -0.5 1 4.775522 -0.4796655 -0.9994194 3.081107 -0.4195649 1 0 -0.5 1 0.03042447 -0.4316817 -1 3.990841 -0.4634069 -1 4.08659 -0.4144173 1 2.089033 -0.4113029 1 3.920572 -0.08043509 1 5.001343 0 1 4.092248 -0.5912403 1 4.910103 -0.5912403 1 5.001343 -0.5 1 5.001343 -1 1 3.92325 -0.9222424 1 3.920572 -0.4195649 1 3.078429 -0.5777577 1 2.911975 -0.08869707 1 4.001008 0 1 3.92325 -0.5777577 1 4.001008 -1 1 2.907805 -0.9071337 1 2.911975 -0.4113029 1 4.001008 -0.5 1 2.907805 -0.5928663 1 3.000672 0 1 1.92812 -0.07221537 1 2.093202 -0.5928663 1 3.000672 -1 1 1.923643 -0.9233075 1 3.000672 -0.5 1 1.92812 -0.4277846 1 1 0 1 2.000336 0 1 1.923643 -0.5766925 1 1.076692 -0.5766925 1 1 -0.5 1 1 -1 1 2.000336 -1 1 2.000336 -0.5 1 4.08659 -0.08558267 0.7225124 4.91576 -0.08558267 0.7225124 4.08659 -0.4144173 0.7225124 4.91576 -0.4144173 0.7225124 4.910103 -0.5912403 0.7225124 4.910103 -0.9087597 0.7225124 4.092248 -0.9087597 0.7225124 4.092248 -0.5912403 0.7225124 3.081107 -0.4195649 0.7225124 3.081107 -0.08043509 0.7225124 3.920572 -0.08043509 0.7225124 3.920572 -0.4195649 0.7225124 3.92325 -0.9222424 0.7225124 3.078429 -0.9222424 0.7225124 3.078429 -0.5777577 0.7225124 3.92325 -0.5777577 0.7225124 2.911975 -0.4113029 0.7225124 2.911975 -0.08869707 0.7225124 2.089033 -0.08869707 0.7225124 2.089033 -0.4113029 0.7225124 2.907805 -0.9071337 0.7225124 2.093202 -0.9071337 0.7225124 2.907805 -0.5928663 0.7225124 2.093202 -0.5928663 0.7225124 1.072215 -0.07221537 0.7225124 1.92812 -0.07221537 0.7225124 1.92812 -0.4277846 0.7225124 1.072215 -0.4277846 0.7225124 1.076692 -0.5766925 0.7225124 1.076692 -0.9233075 0.7225124 1.923643 -0.9233075 0.7225124 1.923643 -0.5766925 0.7225124 -0.9988145 1.346771 0.9989923 -0.64942 1.334931 -1.001003 0.001185476 1.346771 -1.001008 0.001185476 1.346771 0.9989923 1.001186 1.346771 0.9989923 1.001186 1.346771 -1.001008 5.002529 1.346771 0.9989923 4.658776 1.30088 -1.001008 4.00219 1.346769 -1.001008 2.001521 1.346771 0.9989923 2.001521 1.346771 -1.001008 3.001857 1.346771 -1.001008 4.002193 1.346771 0.9989923 3.001857 1.346771 0.9989923 -0.7966484 -0.9439133 0.009257853 -0.8253028 0.9940802 2.14577e-6 0.9895175 -0.937668 1.78814e-6 4.829467 0.9770544 0 4.861521 -0.9415198 0.002307176 3.009175 -0.9357679 1.37091e-6 4.88269 -0.001327097 0 -0.8156483 0.01443594 1.19209e-7 0.01777267 -0.9264913 0 3.98089 -0.9278619 0 2.008893 -0.9381937 1.54972e-6 -0.7952875 -0.4813266 0.002273201 4.888432 -0.4898328 2.90275e-4 -0.8229974 1.33465 -0.00544697 0.7468086 1.346699 -0.001188874 4.830652 1.323825 -0.001007676 2.933876 1.346771 -0.001007676 -0.1634256 1.345589 -0.003984868 4.002192 1.34677 -0.001007676 2.008493 1.346771 -0.008728861 0.001597523 1.612534 0.9982928 1.001598 1.612534 0.9982928 2.001933 1.612534 0.9982928 4.002605 1.612534 0.9982928 3.002269 1.612534 0.9982928 -0.9984024 1.612534 0.9982928 5.002941 1.612534 0.9982928 -0.8071753 1.572998 -2.60032e-4 0.7298849 1.460804 -0.001329362 4.831425 1.460652 0.001893281 2.820974 1.514091 -0.001376628 -0.1535928 1.51311 -0.001873552 4.040789 1.505092 -0.001207232 1.955724 1.470366 -0.004193902 4.001004 0.9999983 -1 4.00219 1.346769 -1.001008 1 0 -1 1 1 -1 0.0355454 -0.8529826 -0.9999999 0.979035 -0.8753359 -0.9999965 4.764037 -0.002654194 -1 4.65759 0.9541088 -1 2.017451 -0.8763874 -0.9999969 3.017679 -0.8715358 -0.9999972 2.000336 1 -1 3.000672 1 -1 3.011072 -0.4486159 -1 0.9963827 -0.4571772 -1 4.775522 -0.4796655 -0.9994194 3.000672 0 -1 2.000336 0 -1 3.999421 -2.94218e-4 -1 0 1 -1 0 0 -1 0.03042447 -0.4316817 -1 3.960772 -0.8557238 -0.9999998 3.990841 -0.4634069 -1 2.005393 -0.453575 -1 2.001521 1.346771 -1.001008 3.001857 1.346771 -1.001008</float_array>
          <technique_common>
            <accessor source="#Cube_001-mesh-positions-array" count="186" stride="3">
              <param name="X" type="float"/>
              <param name="Y" type="float"/>
              <param name="Z" type="float"/>
            </accessor>
          </technique_common>
        </source>
        <source id="Cube_001-mesh-normals">
          <float_array id="Cube_001-mesh-normals-array" count="1104">-0.9850443 -0.009707272 -0.1720274 0 -0.002905845 -0.9999958 -0.01533502 -0.9982924 -0.0563662 0.02050137 -0.9971261 -0.07293313 0 0 1 0 0 1 0.9918482 -0.05959767 -0.1126289 0 0 1 0 -1 0 0 0.002905845 0.9999958 4.62868e-5 -0.002906024 -0.9999958 0 1 0 0 0 1 0.002420425 -0.9980939 -0.06166779 0 0 1 0 0 1 0 0 1 0 0 1 0.9915801 0.0539416 -0.1177253 0 0 1 0 0 1 -0.9824879 -0.04118365 -0.1817178 -6.57682e-6 3.96848e-6 -1 0 0 1 0 0 1 -0.02760791 -0.03264862 -0.9990855 -0.0114786 -0.9980047 -0.06208741 -2.03046e-4 -0.00290513 -0.9999958 0 0 1 0 0 1 -0.9850083 0.003908216 -0.172463 -1 0 0 0 0 1 0.008114516 -0.9973636 -0.07211118 0 0 1 0 0 1 -5.1475e-4 -0.998095 -0.06169301 0 0 1 1 0 0 0 0.002905845 0.9999958 0 -1 0 0 0 1 0 1 0 0 0 1 -4.25066e-4 -0.0092839 -0.9999568 0 0 1 -0.9795923 -1.52961e-4 -0.2009946 0.00604701 -4.63935e-4 -0.9999816 0 0 1 0 1 0 1 0 0 0.9929656 0.01160162 -0.1178335 0 0 1 0 0 1 0 0 1 0 0 1 0 0 1 0 0 1 0 0 1 0 0 1 0 0 1 0 0 1 0 0 1 0 0 1 0 0 1 0 0 1 0 0 1 0 0 1 0 0 1 0 0 1 0 0 1 0 0 1 0 0 1 0 0 1 0 0 1 0 0 1 0 0 1 0 0 1 0 0 1 0 0 1 0 0 1 0 0 1 0 0 1 0 0 1 0 0 1 0 0 1 0 0 1 0 0 1 0 0 1 0 0 1 0 0 1 0 0 1 0 0 1 0 0 1 0 -1 0 -1 0 0 1 0 0 1 0 0 -1 0 0 1 0 0 1 0 0 0 -1 0 0 1 0 0 1 0 0 -1 0 -1 0 0 -1 0 0 -1 0 0 0 -1 0 0 1 0 0 -1 0 1 0 0 0 -1 0 -1 0 0 0 1 0 -1 0 0 0 1 0 1 0 0 0 -0.001260757 -0.9999992 -0.005974471 0.03411906 -0.9993999 -0.9825355 0.06898367 -0.1728155 0 0.002632319 0.9999966 0.003072619 -7.75519e-4 -0.999995 0 0.002632319 0.9999966 0.9855561 -0.00386101 -0.1693052 0 0.002905845 0.9999958 0 0 1 0 -0.002905845 -0.9999958 0 0 1 0 0.002905845 0.9999958 0 0.002905845 0.9999958 0 0.002905845 0.9999958 0.9855561 -0.00386101 -0.1693052 0 1 0 1.66838e-6 1 -8.34468e-7 -0.01819461 0.9998328 -0.001818299 0 1 0 0.06972092 0.9975665 -9.65016e-7 0 1 7.20155e-5 0.9927502 0.02375918 -0.1178246 -0.9795916 -3.32917e-4 -0.2009978 0 -0.9980955 -0.06168866 0 -0.9974082 -0.07195109 -0.9851347 0.002868831 -0.1717595 -0.02363979 -0.9977994 -0.06194716 -0.9798328 -0.08285862 -0.18183 0.9870116 0.1098121 -0.1172579 0 -0.9980955 -0.06168866 0.9847662 -0.1325272 -0.1125703 0.05305868 -0.9959728 -0.07226961 0 -0.9982866 -0.05851495 -0.9849073 -0.01982384 -0.1719436 0.05882257 0.9924327 -0.1077829 0.05621981 0.9929254 -0.1045874 -0.04953932 0.9891926 -0.1379996 0.09039545 0.9895434 -0.1123946 0.007354319 0.9950284 -0.09931987 -0.00805968 0.9889662 -0.1479218 0 0.002632319 0.9999966 0.9855544 -0.001973569 -0.1693478 0 0.002632319 0.9999966 -0.001306712 0.01267892 -0.9999188 0.008343398 0.003424644 -0.9999593 0 0.002632319 0.9999966 0 0.002632319 0.9999966 0.005110502 0.02116799 -0.9997629 0 -2.83046e-7 -1 0 0 -1 0 0 -1 0 0 -1 7.15066e-4 -0.00119996 -0.9999991 0 0 -1 0 0 -1 0 0 -1 0 0 -1 0 0 -1 -4.10295e-7 -8.39288e-6 -1 -2.6691e-6 -6.66569e-6 -1 -2.65806e-7 -6.62814e-6 -1 0 0 -1 0 -0.002905845 -0.9999958 0 -0.002905845 -0.9999958 0 0 1 0 0 1 -0.9834284 0 -0.1812967 0 -0.002905845 -0.9999958 -0.0353527 -0.9968355 -0.07119864 0 -0.9984015 -0.05652028 0 0 1 0 0 1 0.9903219 0 -0.1387894 0 0 1 0 -1 0 0 0.002905845 0.9999958 4.63755e-5 -0.002905845 -0.9999958 0 1 0 0 0 1 0.004840433 -0.9979345 -0.0640583 0 0 1 0 0 1 0 0 1 0 0 1 0.9855487 0 -0.1693925 0 0 1 0 0 1 -0.9795929 0 -0.2009918 -4.72081e-7 0 -1 0 0 1 0 0 1 -0.007316529 -8.92155e-5 -0.9999732 0 -0.9973092 -0.07331091 -2.03046e-4 -0.00290513 -0.9999958 0 0 1 0 0 1 -0.9850741 0.002867579 -0.172107 -1 0 0 0 0 1 0.01672929 -0.9978129 -0.0639494 0 0 1 0 0 1 -0.001010596 -0.9980632 -0.06220078 0 0 1 1 0 0 0 0.002905845 0.9999958 0 -1 0 0 0 1 0 1 0 0 0 1 -0.00729531 -5.1417e-4 -0.9999732 0 0 1 -0.9795788 0 -0.2010603 5.31236e-4 -0.0100702 -0.9999492 0 0 1 0 1 0 1 0 0 0.9936823 0 -0.11223 0 0 1 0 0 1 0 0 1 0 0 1 0 0 1 0 0 1 0 0 1 0 0 1 0 0 1 0 0 1 0 0 1 0 0 1 0 0 1 0 0 1 0 0 1 0 0 1 0 0 1 0 0 1 0 0 1 0 0 1 0 0 1 0 0 1 0 0 1 0 0 1 0 0 1 0 0 1 0 0 1 0 0 1 0 0 1 0 0 1 0 0 1 0 0 1 0 0 1 0 0 1 0 0 1 0 0 1 0 0 1 0 0 1 0 0 1 0 0 1 0 0 1 0 0 1 0 -1 0 -1 0 0 1 0 0 1 0 0 -1 0 0 1 0 0 1 0 0 0 -1 0 0 1 0 0 1 0 0 -1 0 -1 0 0 -1 0 0 -1 0 0 0 -1 0 0 1 0 0 -1 0 1 0 0 0 -1 0 -1 0 0 0 1 0 -1 0 0 0 1 0 1 0 0 1.23199e-4 -0.002122104 -0.9999977 -0.002324461 -0.001576006 -0.9999961 -0.9821445 0.001027524 -0.1881255 0 0.002632319 0.9999966 0.001357257 0.01252257 -0.9999207 0 0.002632319 0.9999966 0.9855561 -0.00386101 -0.1693053 0 0.002905845 0.9999958 0 0 1 0 -0.002905845 -0.9999958 0 0 1 0 0.002905845 0.9999958 0 0.002905845 0.9999958 0 0.002905845 0.9999958 0.9855561 -0.00386101 -0.1693052 -5.67243e-5 1 5.75835e-5 7.81103e-7 1 0 -0.01657617 0.9998592 -0.002607524 0 1 0 0.02767443 0.9992335 -0.0276845 -0.001222789 0.9999988 9.83954e-4 0.9936285 0.01161283 -0.1121053 -0.9795771 -1.54123e-4 -0.2010687 -5.14736e-4 -0.9980632 -0.06220597 0.008118987 -0.997915 -0.06402921 -0.9850695 0.003914296 -0.1721124 -0.01146966 -0.9972286 -0.07350879 -0.9786128 -0.04111546 -0.2015603 0.9839301 0.05352544 -0.1703425 0.002420067 -0.9979419 -0.0640794 0.9880818 -0.05950427 -0.1419634 0.02076399 -0.9984177 -0.05225938 -0.01527982 -0.9973137 -0.07163685 -0.9833573 -0.009690642 -0.1814235 0 0.9886756 -0.1500685 0 0.9885811 -0.1506898 0 0.9951863 -0.09800165 0 0.9992171 -0.03956228 0 0.9942719 -0.10688 0 0.9900933 -0.1404108 0 0.002632319 0.9999966 0.9855544 -0.001976966 -0.1693482 0 0.002632319 0.9999966 0.001857399 0.02163362 -0.9997643 0.001371204 0.03725183 -0.999305 0 0.002632319 0.9999966 0 0.002632319 0.9999966 -3.46845e-5 -0.001252293 -0.9999992 3.39837e-6 -8.55088e-6 -1 0 0 -1 0 0 -1 0 0 -1 0 0 -1 0 0 -1 0 0 -1 0 0 -1 0 0 -1 0 0 -1 0 -7.32979e-6 -1 0 -4.55263e-7 -1 0 -7.3295e-6 -1 0 0 -1 0 -0.002905845 -0.9999958 0 -0.002905845 -0.9999958 0 0 1 0 0 1</float_array>
          <technique_common>
            <accessor source="#Cube_001-mesh-normals-array" count="368" stride="3">
              <param name="X" type="float"/>
              <param name="Y" type="float"/>
              <param name="Z" type="float"/>
            </accessor>
          </technique_common>
        </source>
        <source id="Cube_001-mesh-map-0">
          <float_array id="Cube_001-mesh-map-0-array" count="2208">0.5 0.125 0.625 0.25 0.5000001 0.25 0.375 0.5 0.375 0.5 0.375 0.5 0.5 0.75 0.375 0.75 0.5 0.75 0.625 0.875 0.5 1 0.5 0.875 0.375 0.5 0.375 0.5 0.375 0.5 0.875 0.6875 0.75 0.75 0.75 0.6875 0.625 0.6875 0.5 0.75 0.5000001 0.6875001 0.375 0.5 0.375 0.5 0.375 0.5 0.625 0.6356979 0.625 0.6356979 0.625 0.6356979 0.625 0.5 0.625 0.5 0.625 0.5 0.25 0.5 0.125 0.5 0.25 0.5 0.6250001 0.7383917 0.625 0.7383917 0.625 0.7383917 0.375 0.75 0.375 0.75 0.375 0.75 0.375 0.75 0.5 0.75 0.5 0.75 0.375 0.75 0.375 0.75 0.375 0.75 0.625 0.625 0.625 0.5 0.625 0.5 0.625 0.625 0.625 0.5 0.625 0.5 0.375 0.5 0.375 0.5 0.375 0.5 0.5 0.5 0.625 0.625 0.5000001 0.625 0.875 0.5 0.75 0.625 0.75 0.5 0.375 0.75 0.375 0.6875 0.375 0.6875 0.5 0.0625 0.625 0.125 0.5 0.125 0.25 0.5 0.125 0.625 0.125 0.5 0.75 0.5 0.625 0.625 0.625 0.5 0.75 0.6875 0.625 0.75 0.625 0.6875 0.125 0.6875 0.25 0.75 0.125 0.75 0.625 0.75 0.5 0.875 0.5 0.7500001 0.375 0.5 0.375 0.5 0.375 0.5 0.375 0.875 0.375 0.75 0.375 0.75 0.625 0.625 0.625 0.5 0.625 0.5 0.5000001 0.25 0.625 0.25 0.5 0.25 0.625 0.6972197 0.625 0.7402803 0.625 0.7402803 0.375 0.6875 0.375 0.625 0.375 0.625 0.5 0.75 0.375 0.75 0.5 0.75 0.625 0.625 0.625 0.5 0.625 0.5 0.25 0.6875 0.25 0.75 0.25 0.75 0.5 0.7500001 0.375 0.75 0.5 0.75 0.25 0.625 0.25 0.6875 0.25 0.6875 0.625 0.7402803 0.625 0.6972197 0.625 0.6972197 0.625 0.5 0.625 0.5 0.625 0.5 0.625 0.698905 0.625 0.698905 0.625 0.698905 0.375 0.5 0.375 0.5 0.375 0.5 0.625 0.6784731 0.625 0.6784731 0.625 0.6784731 0.375 0.5 0.25 0.5 0.25 0.5 0.25 0.625 0.125 0.6875 0.125 0.625 0.75 0.625 0.625 0.6875 0.625 0.625 0.5 0 0.625 0.0625 0.5 0.0625 0.375 0.6875 0.375 0.75 0.375 0.75 0.375 0.5 0.375 0.5 0.375 0.5 0.625 0.7402803 0.625 0.7402803 0.625 0.7402803 0.625 0.738595 0.625 0.698905 0.625 0.698905 0.625 0.625 0.5000001 0.6875001 0.5000001 0.625 0.875 0.625 0.75 0.6875 0.75 0.625 0.375 0.5 0.375 0.5 0.375 0.5 0.625 0.6356979 0.625 0.625 0.625 0.6356979 0.625 0.6356979 0.625 0.6875 0.625 0.6768022 0.625 0.6768022 0.625 0.625 0.625 0.6356979 0.625 0.6768022 0.625 0.6875 0.625 0.6768022 0.625 0.738595 0.625 0.6875 0.625 0.698905 0.625 0.738595 0.625 0.75 0.625 0.738595 0.625 0.698905 0.625 0.75 0.625 0.738595 0.625 0.698905 0.625 0.6875 0.625 0.698905 0.625 0.6350544 0.625 0.6875 0.625 0.6774456 0.625 0.6350544 0.625 0.625 0.625 0.6350544 0.625 0.6774456 0.625 0.625 0.625 0.6350544 0.625 0.6774456 0.625 0.6875 0.625 0.6774456 0.625 0.7402803 0.625 0.75 0.625 0.7402803 0.625 0.6972197 0.625 0.75 0.625 0.7402803 0.625 0.7402803 0.625 0.6875 0.625 0.6972197 0.625 0.6972197 0.625 0.6875 0.625 0.6972197 0.6250001 0.6764129 0.625 0.625 0.625 0.6360871 0.625 0.6360871 0.625 0.625 0.625 0.6360871 0.625 0.6360871 0.625 0.6875 0.625 0.6764129 0.625 0.6764129 0.625 0.6875 0.6250001 0.6764129 0.625 0.7383917 0.625 0.75 0.6250001 0.7383917 0.6250001 0.7383917 0.625 0.6875 0.6250001 0.6991084 0.6250001 0.6991084 0.625 0.75 0.625 0.7383917 0.6250001 0.6991084 0.625 0.6875 0.6250001 0.6991084 0.625 0.634027 0.625 0.625 0.625 0.634027 0.625 0.6784731 0.625 0.625 0.625 0.634027 0.625 0.634027 0.625 0.6875 0.625 0.6784731 0.625 0.6784731 0.625 0.6875 0.625 0.6784731 0.6250001 0.6970866 0.625 0.75 0.6250001 0.7404134 0.6250001 0.7404134 0.625 0.75 0.625 0.7404134 0.625 0.7404134 0.625 0.6875 0.625 0.6970866 0.625 0.6970866 0.625 0.6875 0.6250001 0.6970866 0.625 0.738595 0.625 0.698905 0.625 0.698905 0.625 0.7383917 0.6250001 0.6991084 0.6250001 0.6991084 0.625 0.7402803 0.625 0.6972197 0.625 0.6972197 0.6250001 0.7404134 0.625 0.6970866 0.6250001 0.6970866 0.625 0.6784731 0.625 0.634027 0.625 0.634027 0.625 0.6774456 0.625 0.6350544 0.625 0.6350544 0.625 0.6764129 0.625 0.6360871 0.625 0.6360871 0.625 0.6768022 0.625 0.6356979 0.625 0.6356979 0.625 0.6972197 0.625 0.6972197 0.625 0.6972197 0.6250001 0.6991084 0.6250001 0.7383917 0.6250001 0.7383917 0.625 0.6768022 0.625 0.6356979 0.625 0.6356979 0.625 0.7383917 0.6250001 0.6991084 0.6250001 0.6991084 0.625 0.6356979 0.625 0.6768022 0.625 0.6768022 0.6250001 0.7404134 0.6250001 0.6970866 0.6250001 0.6970866 0.625 0.6774456 0.625 0.6350544 0.625 0.6350544 0.6250001 0.6991084 0.6250001 0.6991084 0.6250001 0.6991084 0.625 0.6768022 0.625 0.6768022 0.625 0.6768022 0.625 0.7404134 0.6250001 0.7404134 0.6250001 0.7404134 0.625 0.6350544 0.625 0.6350544 0.625 0.6350544 0.625 0.6970866 0.625 0.7404134 0.625 0.7404134 0.625 0.6350544 0.625 0.6774456 0.625 0.6774456 0.625 0.6360871 0.6250001 0.6764129 0.6250001 0.6764129 0.6250001 0.6970866 0.625 0.6970866 0.625 0.6970866 0.625 0.6774456 0.625 0.6774456 0.625 0.6774456 0.625 0.6360871 0.625 0.6360871 0.625 0.6360871 0.625 0.6764129 0.625 0.6360871 0.625 0.6360871 0.625 0.634027 0.625 0.634027 0.625 0.634027 0.625 0.698905 0.625 0.738595 0.625 0.738595 0.6250001 0.6764129 0.625 0.6764129 0.625 0.6764129 0.625 0.634027 0.625 0.6784731 0.625 0.6784731 0.625 0.738595 0.625 0.738595 0.625 0.738595 0.625 0.6784731 0.625 0.634027 0.625 0.634027 0.5 0.5 0.5 0.5 0.5 0.5 0.5 0.5 0.5 0.5 0.5 0.5 0.625 0.25 0.5 0.25 0.5 0.25 0.75 0.5 0.875 0.5 0.875 0.5 0.5 0.375 0.5 0.5 0.5 0.5 0.625 0.5 0.75 0.5 0.75 0.5 0.5 0.5 0.375 0.5 0.5 0.5 0.625 0.5 0.75 0.5 0.75 0.5 0.25 0.5 0.25 0.625 0.25 0.625 0.375 0.5 0.25 0.5 0.375 0.5 0.375 0.625 0.375 0.5 0.375 0.5 0.625 0.5 0.625 0.5 0.625 0.5 0.75 0.5 0.875 0.5 0.875 0.5 0.625 0.5 0.625 0.5 0.625 0.5 0.625 0.5 0.5 0.5 0.625 0.5 0.375 0.5 0.5 0.5 0.375 0.5 0.375 0.5 0.5 0.5 0.375 0.5 0.375 0.25 0.5 0.375 0.375 0.375 0.375 0.5 0.5 0.5 0.375 0.5 0.5 0.5 0.375 0.5 0.375 0.5 0.375 0.375 0.5 0.5 0.375 0.5 0.5000001 0.625 0.375 0.6875 0.375 0.625 0.375 0 0.5 0.0625 0.375 0.0625 0.625 0.75 0.5 0.75 0.625 0.75 0.625 0.75 0.5 0.75 0.625 0.75 0.375 0.25 0.5 0.25 0.375 0.25 0.5 0.7500001 0.375 0.875 0.375 0.75 0.375 0.0625 0.5 0.125 0.375 0.125 0.375 0.5 0.5000001 0.625 0.375 0.625 0.5 0.75 0.625 0.75 0.625 0.75 0.5000001 0.6875001 0.375 0.75 0.375 0.6875 0.5 0.875 0.375 1 0.375 0.875 0.625 0.75 0.5 0.75 0.625 0.75 0.375 0.125 0.5000001 0.25 0.375 0.25 0.625 0.375 0.5 0.5 0.5 0.375 0.625 0.5 0.5 0.5 0.5 0.5 0.625 0.5 0.5 0.5 0.5 0.5 0.5 0.25 0.625 0.375 0.5 0.375 0.625 0.5 0.5 0.5 0.5 0.5 0.625 0.5 0.5 0.5 0.5 0.5 0.625 0.5 0.625 0.5 0.625 0.5 0.625 0.5 0.5 0.5 0.625 0.5 0.625 0.5 0.625 0.5 0.625 0.5 0.5 0.375 0.5 0.25 0.5 0.375 0.5 0.5 0.5 0.5 0.5 0.5 0.625 0.5 0.625 0.5 0.625 0.5 0.625 0.5 0.625 0.5 0.625 0.5 0.5 0.5 0.5 0.5 0.5 0.5 0.375 0.6875 0.25 0.75 0.25 0.6875 0.375 0.625 0.375 0.5 0.375 0.625 0.375 0.5 0.375 0.625 0.375 0.625 0.375 0.6875 0.375 0.625 0.375 0.6875 0.375 0.6875 0.375 0.625 0.375 0.6875 0.375 0.5 0.25 0.625 0.25 0.5 0.375 0.6875 0.375 0.625 0.375 0.6875 0.375 0.5 0.375 0.625 0.375 0.625 0.375 0.625 0.375 0.6875 0.375 0.6875 0.375 0.5 0.375 0.625 0.375 0.625 0.375 0.6875 0.375 0.75 0.375 0.75 0.375 0.6875 0.375 0.75 0.375 0.75 0.375 0.75 0.375 0.6875 0.375 0.75 0.375 0.625 0.25 0.6875 0.25 0.625 0.375 0.5 0.375 0.5 0.375 0.5 0.375 0.5 0.375 0.5 0.375 0.5 0.375 0.6875 0.375 0.6875 0.375 0.6875 0.375 0.75 0.375 0.75 0.375 0.75 0.5 0.125 0.625 0.125 0.625 0.25 0.375 0.5 0.375 0.5 0.375 0.5 0.5 0.75 0.375 0.75 0.375 0.75 0.625 0.875 0.625 1 0.5 1 0.375 0.5 0.375 0.5 0.375 0.5 0.875 0.6875 0.875 0.75 0.75 0.75 0.625 0.6875 0.625 0.75 0.5 0.75 0.375 0.5 0.375 0.5 0.375 0.5 0.625 0.6356979 0.625 0.6356979 0.625 0.6356979 0.625 0.5 0.625 0.5 0.625 0.5 0.25 0.5 0.125 0.5 0.125 0.5 0.6250001 0.7383917 0.6250001 0.7383917 0.625 0.7383917 0.375 0.75 0.375 0.75 0.375 0.75 0.375 0.75 0.375 0.75 0.5 0.75 0.375 0.75 0.375 0.75 0.375 0.75 0.625 0.625 0.625 0.625 0.625 0.5 0.625 0.625 0.625 0.625 0.625 0.5 0.375 0.5 0.375 0.5 0.375 0.5 0.5 0.5 0.625 0.5 0.625 0.625 0.875 0.5 0.875 0.625 0.75 0.625 0.375 0.75 0.375 0.75 0.375 0.6875 0.5 0.0625 0.625 0.0625 0.625 0.125 0.25 0.5 0.25 0.625 0.125 0.625 0.75 0.5 0.75 0.625 0.625 0.625 0.75 0.6875 0.75 0.75 0.625 0.75 0.125 0.6875 0.25 0.6875 0.25 0.75 0.625 0.75 0.625 0.875 0.5 0.875 0.375 0.5 0.375 0.5 0.375 0.5 0.375 0.875 0.375 0.875 0.375 0.75 0.625 0.625 0.625 0.625 0.625 0.5 0.5000001 0.25 0.625 0.25 0.625 0.25 0.625 0.6972197 0.625 0.6972197 0.625 0.7402803 0.375 0.6875 0.375 0.6875 0.375 0.625 0.5 0.75 0.375 0.75 0.375 0.75 0.625 0.625 0.625 0.625 0.625 0.5 0.25 0.6875 0.25 0.6875 0.25 0.75 0.5 0.7500001 0.375 0.75 0.375 0.75 0.25 0.625 0.25 0.625 0.25 0.6875 0.625 0.7402803 0.625 0.7402803 0.625 0.6972197 0.625 0.5 0.625 0.5 0.625 0.5 0.625 0.698905 0.625 0.698905 0.625 0.698905 0.375 0.5 0.375 0.5 0.375 0.5 0.625 0.6784731 0.625 0.6784731 0.625 0.6784731 0.375 0.5 0.375 0.5 0.25 0.5 0.25 0.625 0.25 0.6875 0.125 0.6875 0.75 0.625 0.75 0.6875 0.625 0.6875 0.5 0 0.625 0 0.625 0.0625 0.375 0.6875 0.375 0.6875 0.375 0.75 0.375 0.5 0.375 0.5 0.375 0.5 0.625 0.7402803 0.625 0.7402803 0.625 0.7402803 0.625 0.738595 0.625 0.738595 0.625 0.698905 0.625 0.625 0.625 0.6875 0.5000001 0.6875001 0.875 0.625 0.875 0.6875 0.75 0.6875 0.375 0.5 0.375 0.5 0.375 0.5 0.625 0.6356979 0.625 0.625 0.625 0.625 0.625 0.6356979 0.625 0.625 0.625 0.6875 0.625 0.6768022 0.625 0.6875 0.625 0.625 0.625 0.6768022 0.625 0.6875 0.625 0.6875 0.625 0.738595 0.625 0.75 0.625 0.6875 0.625 0.738595 0.625 0.75 0.625 0.75 0.625 0.698905 0.625 0.6875 0.625 0.75 0.625 0.698905 0.625 0.6875 0.625 0.6875 0.625 0.6350544 0.625 0.625 0.625 0.6875 0.625 0.6350544 0.625 0.625 0.625 0.625 0.625 0.6774456 0.625 0.6875 0.625 0.625 0.625 0.6774456 0.625 0.6875 0.625 0.6875 0.625 0.7402803 0.625 0.75 0.625 0.75 0.625 0.6972197 0.625 0.6875 0.625 0.75 0.625 0.7402803 0.625 0.75 0.625 0.6875 0.625 0.6972197 0.625 0.6875 0.625 0.6875 0.6250001 0.6764129 0.625 0.6875 0.625 0.625 0.625 0.6360871 0.625 0.625 0.625 0.625 0.625 0.6360871 0.625 0.625 0.625 0.6875 0.625 0.6764129 0.625 0.6875 0.625 0.6875 0.625 0.7383917 0.625 0.75 0.625 0.75 0.6250001 0.7383917 0.625 0.75 0.625 0.6875 0.6250001 0.6991084 0.625 0.6875 0.625 0.75 0.6250001 0.6991084 0.625 0.6875 0.625 0.6875 0.625 0.634027 0.625 0.625 0.625 0.625 0.625 0.6784731 0.625 0.6875 0.625 0.625 0.625 0.634027 0.625 0.625 0.625 0.6875 0.625 0.6784731 0.625 0.6875 0.625 0.6875 0.6250001 0.6970866 0.625 0.6875 0.625 0.75 0.6250001 0.7404134 0.625 0.75 0.625 0.75 0.625 0.7404134 0.625 0.75 0.625 0.6875 0.625 0.6970866 0.625 0.6875 0.625 0.6875 0.625 0.738595 0.625 0.738595 0.625 0.698905 0.625 0.7383917 0.6250001 0.7383917 0.6250001 0.6991084 0.625 0.7402803 0.625 0.7402803 0.625 0.6972197 0.6250001 0.7404134 0.625 0.7404134 0.625 0.6970866 0.625 0.6784731 0.625 0.6784731 0.625 0.634027 0.625 0.6774456 0.625 0.6774456 0.625 0.6350544 0.625 0.6764129 0.6250001 0.6764129 0.625 0.6360871 0.625 0.6768022 0.625 0.6768022 0.625 0.6356979 0.625 0.6972197 0.625 0.6972197 0.625 0.6972197 0.6250001 0.6991084 0.6250001 0.6991084 0.6250001 0.7383917 0.625 0.6768022 0.625 0.6768022 0.625 0.6356979 0.625 0.7383917 0.625 0.7383917 0.6250001 0.6991084 0.625 0.6356979 0.625 0.6356979 0.625 0.6768022 0.6250001 0.7404134 0.6250001 0.7404134 0.6250001 0.6970866 0.625 0.6774456 0.625 0.6774456 0.625 0.6350544 0.6250001 0.6991084 0.6250001 0.6991084 0.6250001 0.6991084 0.625 0.6768022 0.625 0.6768022 0.625 0.6768022 0.625 0.7404134 0.625 0.7404134 0.6250001 0.7404134 0.625 0.6350544 0.625 0.6350544 0.625 0.6350544 0.625 0.6970866 0.625 0.6970866 0.625 0.7404134 0.625 0.6350544 0.625 0.6350544 0.625 0.6774456 0.625 0.6360871 0.625 0.6360871 0.6250001 0.6764129 0.6250001 0.6970866 0.6250001 0.6970866 0.625 0.6970866 0.625 0.6774456 0.625 0.6774456 0.625 0.6774456 0.625 0.6360871 0.625 0.6360871 0.625 0.6360871 0.625 0.6764129 0.625 0.6764129 0.625 0.6360871 0.625 0.634027 0.625 0.634027 0.625 0.634027 0.625 0.698905 0.625 0.698905 0.625 0.738595 0.6250001 0.6764129 0.6250001 0.6764129 0.625 0.6764129 0.625 0.634027 0.625 0.634027 0.625 0.6784731 0.625 0.738595 0.625 0.738595 0.625 0.738595 0.625 0.6784731 0.625 0.6784731 0.625 0.634027 0.5 0.5 0.5 0.5 0.5 0.5 0.5 0.5 0.5 0.5 0.5 0.5 0.625 0.25 0.625 0.25 0.5 0.25 0.75 0.5 0.75 0.5 0.875 0.5 0.5 0.375 0.5 0.375 0.5 0.5 0.625 0.5 0.625 0.5 0.75 0.5 0.5 0.5 0.375 0.5 0.375 0.5 0.625 0.5 0.625 0.5 0.75 0.5 0.25 0.5 0.25 0.5 0.25 0.625 0.375 0.5 0.25 0.5 0.25 0.5 0.375 0.625 0.375 0.625 0.375 0.5 0.625 0.5 0.625 0.5 0.625 0.5 0.75 0.5 0.75 0.5 0.875 0.5 0.625 0.5 0.625 0.5 0.625 0.5 0.625 0.5 0.5 0.5 0.5 0.5 0.375 0.5 0.5 0.5 0.5 0.5 0.375 0.5 0.5 0.5 0.5 0.5 0.375 0.25 0.5 0.25 0.5 0.375 0.375 0.5 0.5 0.5 0.5 0.5 0.5 0.5 0.5 0.5 0.375 0.5 0.375 0.375 0.5 0.375 0.5 0.5 0.5000001 0.625 0.5000001 0.6875001 0.375 0.6875 0.375 0 0.5 0 0.5 0.0625 0.625 0.75 0.5 0.7500001 0.5 0.75 0.625 0.75 0.5 0.75 0.5 0.75 0.375 0.25 0.5000001 0.25 0.5 0.25 0.5 0.7500001 0.5 0.875 0.375 0.875 0.375 0.0625 0.5 0.0625 0.5 0.125 0.375 0.5 0.5 0.5 0.5000001 0.625 0.5 0.75 0.5 0.75 0.625 0.75 0.5000001 0.6875001 0.5 0.75 0.375 0.75 0.5 0.875 0.5 1 0.375 1 0.625 0.75 0.5 0.75 0.5 0.75 0.375 0.125 0.5 0.125 0.5000001 0.25 0.625 0.375 0.625 0.5 0.5 0.5 0.625 0.5 0.625 0.5 0.5 0.5 0.625 0.5 0.625 0.5 0.5 0.5 0.5 0.25 0.625 0.25 0.625 0.375 0.625 0.5 0.625 0.5 0.5 0.5 0.625 0.5 0.625 0.5 0.5 0.5 0.625 0.5 0.625 0.5 0.625 0.5 0.625 0.5 0.5 0.5 0.5 0.5 0.625 0.5 0.625 0.5 0.625 0.5 0.5 0.375 0.5 0.25 0.5 0.25 0.5 0.5 0.5 0.5 0.5 0.5 0.625 0.5 0.625 0.5 0.625 0.5 0.625 0.5 0.625 0.5 0.625 0.5 0.5 0.5 0.5 0.5 0.5 0.5 0.375 0.6875 0.375 0.75 0.25 0.75 0.375 0.625 0.375 0.5 0.375 0.5 0.375 0.5 0.375 0.5 0.375 0.625 0.375 0.6875 0.375 0.625 0.375 0.625 0.375 0.6875 0.375 0.625 0.375 0.625 0.375 0.5 0.375 0.625 0.25 0.625 0.375 0.6875 0.375 0.625 0.375 0.625 0.375 0.5 0.375 0.5 0.375 0.625 0.375 0.625 0.375 0.625 0.375 0.6875 0.375 0.5 0.375 0.5 0.375 0.625 0.375 0.6875 0.375 0.6875 0.375 0.75 0.375 0.6875 0.375 0.6875 0.375 0.75 0.375 0.75 0.375 0.6875 0.375 0.6875 0.375 0.625 0.375 0.6875 0.25 0.6875 0.375 0.5 0.375 0.5 0.375 0.5 0.375 0.5 0.375 0.5 0.375 0.5 0.375 0.6875 0.375 0.6875 0.375 0.6875 0.375 0.75 0.375 0.75 0.375 0.75</float_array>
          <technique_common>
            <accessor source="#Cube_001-mesh-map-0-array" count="1104" stride="2">
              <param name="S" type="float"/>
              <param name="T" type="float"/>
            </accessor>
          </technique_common>
        </source>
        <vertices id="Cube_001-mesh-vertices">
          <input semantic="POSITION" source="#Cube_001-mesh-positions"/>
        </vertices>
        <triangles count="368">
          <input semantic="VERTEX" source="#Cube_001-mesh-vertices" offset="0"/>
          <input semantic="NORMAL" source="#Cube_001-mesh-normals" offset="1"/>
          <input semantic="TEXCOORD" source="#Cube_001-mesh-map-0" offset="2" set="0"/>
          <p>133 0 0 3 0 1 127 0 2 35 1 3 117 1 4 122 1 5 135 2 6 10 2 7 130 2 8 24 3 9 126 3 10 134 3 11 120 4 12 185 4 13 123 4 14 40 5 15 24 5 16 43 5 17 52 6 18 130 6 19 138 6 20 35 7 21 163 7 22 6 7 23 31 8 24 81 8 25 19 8 26 33 9 27 116 9 28 7 9 29 21 10 30 113 10 31 114 10 32 61 11 33 101 11 34 32 11 35 12 12 36 181 12 37 27 12 38 34 13 39 131 13 40 136 13 41 4 14 42 168 14 43 34 14 44 73 15 45 14 15 46 33 15 47 58 16 48 8 16 49 30 16 50 9 17 51 160 17 52 28 17 53 129 18 54 49 18 55 132 18 56 3 19 57 25 19 58 22 19 59 27 20 60 182 20 61 45 20 62 137 21 63 16 21 64 133 21 65 21 22 66 15 22 67 2 22 68 22 23 69 72 23 70 7 23 71 43 24 72 77 24 73 76 24 74 37 25 75 23 25 76 0 25 77 77 26 78 134 26 79 128 26 80 28 27 81 119 27 82 9 27 83 23 28 84 165 28 85 4 28 86 65 29 87 30 29 88 14 29 89 127 30 90 112 30 91 139 30 92 59 31 93 92 31 94 54 31 95 41 32 96 166 32 97 18 32 98 131 33 99 27 33 100 135 33 101 72 34 102 33 34 103 7 34 104 44 35 105 164 35 106 23 35 107 128 36 108 34 36 109 136 36 110 26 37 111 180 37 112 44 37 113 13 38 114 94 38 115 56 38 116 14 39 117 121 39 118 33 39 119 50 40 120 84 40 121 51 40 122 122 41 123 170 41 124 35 41 125 71 42 126 107 42 127 38 42 128 6 43 129 178 43 130 21 43 131 26 44 132 37 44 133 15 44 134 25 45 135 76 45 136 72 45 137 126 46 138 40 46 139 137 46 140 45 47 141 10 47 142 27 47 143 123 48 144 184 48 145 122 48 146 54 49 147 93 49 148 13 49 149 29 50 150 87 50 151 50 50 152 49 51 153 138 51 154 132 51 155 16 52 156 43 52 157 25 52 158 28 53 159 161 53 160 120 53 161 19 54 162 58 54 163 31 54 164 31 55 165 63 55 166 46 55 167 39 56 168 49 56 169 19 56 170 46 57 171 52 57 172 39 57 173 11 58 174 52 58 175 51 58 176 29 59 177 53 59 178 11 59 179 50 60 180 60 60 181 29 60 182 51 61 183 63 61 184 50 61 185 20 62 186 70 62 187 42 62 188 48 63 189 65 63 190 20 63 191 55 64 192 58 64 193 48 64 194 42 65 195 63 65 196 55 65 197 13 66 198 60 66 199 54 66 200 56 67 201 68 67 202 13 67 203 54 68 204 63 68 205 59 68 206 59 69 207 70 69 208 56 69 209 62 70 210 65 70 211 57 70 212 57 71 213 73 71 214 36 71 215 36 72 216 79 72 217 47 72 218 47 73 219 70 73 220 62 73 221 32 74 222 68 74 223 61 74 224 61 75 225 70 75 226 64 75 227 67 76 228 78 76 229 32 76 230 64 77 231 79 77 232 67 77 233 66 78 234 72 78 235 17 78 236 71 79 237 73 79 238 66 79 239 17 80 240 76 80 241 38 80 242 38 81 243 79 81 244 71 81 245 75 82 246 77 82 247 5 82 248 5 83 249 78 83 250 69 83 251 69 84 252 79 84 253 74 84 254 74 85 255 76 85 256 75 85 257 86 86 258 84 86 259 87 86 260 101 87 261 102 87 262 103 87 263 93 88 264 95 88 265 94 88 266 109 89 267 111 89 268 108 89 269 107 90 270 105 90 271 104 90 272 88 91 273 90 91 274 89 91 275 99 92 276 97 92 277 98 92 278 82 93 279 81 93 280 80 93 281 56 94 282 95 94 283 59 94 284 64 95 285 100 95 286 61 95 287 46 96 288 80 96 289 31 96 290 32 97 291 103 97 292 67 97 293 19 98 294 83 98 295 39 98 296 5 99 297 108 99 298 75 99 299 42 100 300 89 100 301 20 100 302 67 101 303 102 101 304 64 101 305 39 102 306 82 102 307 46 102 308 69 103 309 109 103 310 5 103 311 20 104 312 90 104 313 48 104 314 74 105 315 110 105 316 69 105 317 48 106 318 91 106 319 55 106 320 57 107 321 96 107 322 62 107 323 75 108 324 111 108 325 74 108 326 55 109 327 88 109 328 42 109 329 36 110 330 97 110 331 57 110 332 47 111 333 98 111 334 36 111 335 17 112 336 105 112 337 66 112 338 51 113 339 85 113 340 11 113 341 62 114 342 99 114 343 47 114 344 66 115 345 106 115 346 71 115 347 11 116 348 86 116 349 29 116 350 38 117 351 104 117 352 17 117 353 142 118 354 158 118 355 144 118 356 140 119 357 159 119 358 145 119 359 112 120 360 153 120 361 139 120 362 115 121 363 151 121 364 112 121 365 143 122 366 154 122 367 140 122 368 116 123 369 146 123 370 115 123 371 129 124 372 119 124 373 141 124 374 7 125 375 115 125 376 22 125 377 21 126 378 179 126 379 26 126 380 6 127 381 114 127 382 117 127 383 18 128 384 167 128 385 9 128 386 8 129 387 124 129 388 30 129 389 22 130 390 112 130 391 3 130 392 30 131 393 125 131 394 14 131 395 8 132 396 141 132 397 118 132 398 117 133 399 145 133 400 122 133 401 123 134 402 144 134 403 120 134 404 113 135 405 143 135 406 114 135 407 122 136 408 142 136 409 123 136 410 144 137 411 119 137 412 120 137 413 114 138 414 140 138 415 117 138 416 132 139 417 41 139 418 18 139 419 0 140 420 137 140 421 37 140 422 77 141 423 136 141 424 78 141 425 68 142 426 135 142 427 60 142 428 2 143 429 139 143 430 113 143 431 128 144 432 23 144 433 4 144 434 37 145 435 133 145 436 15 145 437 9 146 438 132 146 439 18 146 440 136 147 441 68 147 442 78 147 443 138 148 444 10 148 445 41 148 446 134 149 447 0 149 448 23 149 449 60 150 450 130 150 451 53 150 452 15 151 453 127 151 454 2 151 455 146 152 456 154 152 457 157 152 458 149 153 459 155 153 460 158 153 461 148 154 462 156 154 463 159 154 464 153 155 465 146 155 466 157 155 467 150 156 468 158 156 469 156 156 470 147 157 471 159 157 472 154 157 473 121 158 474 147 158 475 116 158 476 118 159 477 155 159 478 152 159 479 118 160 480 149 160 481 124 160 482 143 161 483 153 161 484 157 161 485 145 162 486 156 162 487 142 162 488 124 163 489 150 163 490 125 163 491 125 164 492 148 164 493 121 164 494 141 165 495 158 165 496 155 165 497 173 166 498 164 166 499 180 166 500 177 167 501 167 167 502 166 167 503 170 168 504 175 168 505 176 168 506 183 169 507 175 169 508 172 169 509 182 170 510 166 170 511 174 170 512 163 171 513 179 171 514 178 171 515 172 172 516 177 172 517 182 172 518 171 173 519 177 173 520 175 173 521 162 174 522 183 174 523 173 174 524 163 175 525 176 175 526 162 175 527 173 176 528 168 176 529 165 176 530 172 177 531 181 177 532 169 177 533 168 178 534 172 178 535 169 178 536 162 179 537 180 179 538 179 179 539 160 180 540 185 180 541 161 180 542 171 181 543 184 181 544 185 181 545 45 182 546 174 182 547 41 182 548 34 183 549 169 183 550 12 183 551 133 184 552 16 184 553 3 184 554 35 185 555 6 185 556 117 185 557 135 186 558 27 186 559 10 186 560 24 187 561 1 187 562 126 187 563 120 188 564 161 188 565 185 188 566 40 189 567 1 189 568 24 189 569 52 190 570 53 190 571 130 190 572 35 191 573 170 191 574 163 191 575 31 192 576 80 192 577 81 192 578 33 193 579 121 193 580 116 193 581 21 194 582 2 194 583 113 194 584 61 195 585 100 195 586 101 195 587 12 196 588 169 196 589 181 196 590 34 197 591 12 197 592 131 197 593 4 198 594 165 198 595 168 198 596 73 199 597 65 199 598 14 199 599 58 200 600 49 200 601 8 200 602 9 201 603 167 201 604 160 201 605 129 202 606 8 202 607 49 202 608 3 203 609 16 203 610 25 203 611 27 204 612 181 204 613 182 204 614 137 205 615 40 205 616 16 205 617 21 206 618 26 206 619 15 206 620 22 207 621 25 207 622 72 207 623 43 208 624 24 208 625 77 208 626 37 209 627 44 209 628 23 209 629 77 210 630 24 210 631 134 210 632 28 211 633 120 211 634 119 211 635 23 212 636 164 212 637 165 212 638 65 213 639 58 213 640 30 213 641 127 214 642 3 214 643 112 214 644 59 215 645 95 215 646 92 215 647 41 216 648 174 216 649 166 216 650 131 217 651 12 217 652 27 217 653 72 218 654 73 218 655 33 218 656 44 219 657 180 219 658 164 219 659 128 220 660 4 220 661 34 220 662 26 221 663 179 221 664 180 221 665 13 222 666 93 222 667 94 222 668 14 223 669 125 223 670 121 223 671 50 224 672 87 224 673 84 224 674 122 225 675 184 225 676 170 225 677 71 226 678 106 226 679 107 226 680 6 227 681 163 227 682 178 227 683 26 228 684 44 228 685 37 228 686 25 229 687 43 229 688 76 229 689 126 230 690 1 230 691 40 230 692 45 231 693 41 231 694 10 231 695 123 232 696 185 232 697 184 232 698 54 233 699 92 233 700 93 233 701 29 234 702 86 234 703 87 234 704 49 235 705 52 235 706 138 235 707 16 236 708 40 236 709 43 236 710 28 237 711 160 237 712 161 237 713 19 238 714 49 238 715 58 238 716 31 239 717 58 239 718 63 239 719 39 240 720 52 240 721 49 240 722 46 241 723 63 241 724 52 241 725 11 242 726 53 242 727 52 242 728 29 243 729 60 243 730 53 243 731 50 244 732 63 244 733 60 244 734 51 245 735 52 245 736 63 245 737 20 246 738 65 246 739 70 246 740 48 247 741 58 247 742 65 247 743 55 248 744 63 248 745 58 248 746 42 249 747 70 249 748 63 249 749 13 250 750 68 250 751 60 250 752 56 251 753 70 251 754 68 251 755 54 252 756 60 252 757 63 252 758 59 253 759 63 253 760 70 253 761 62 254 762 70 254 763 65 254 764 57 255 765 65 255 766 73 255 767 36 256 768 73 256 769 79 256 770 47 257 771 79 257 772 70 257 773 32 258 774 78 258 775 68 258 776 61 259 777 68 259 778 70 259 779 67 260 780 79 260 781 78 260 782 64 261 783 70 261 784 79 261 785 66 262 786 73 262 787 72 262 788 71 263 789 79 263 790 73 263 791 17 264 792 72 264 793 76 264 794 38 265 795 76 265 796 79 265 797 75 266 798 76 266 799 77 266 800 5 267 801 77 267 802 78 267 803 69 268 804 78 268 805 79 268 806 74 269 807 79 269 808 76 269 809 86 270 810 85 270 811 84 270 812 101 271 813 100 271 814 102 271 815 93 272 816 92 272 817 95 272 818 109 273 819 110 273 820 111 273 821 107 274 822 106 274 823 105 274 824 88 275 825 91 275 826 90 275 827 99 276 828 96 276 829 97 276 830 82 277 831 83 277 832 81 277 833 56 278 834 94 278 835 95 278 836 64 279 837 102 279 838 100 279 839 46 280 840 82 280 841 80 280 842 32 281 843 101 281 844 103 281 845 19 282 846 81 282 847 83 282 848 5 283 849 109 283 850 108 283 851 42 284 852 88 284 853 89 284 854 67 285 855 103 285 856 102 285 857 39 286 858 83 286 859 82 286 860 69 287 861 110 287 862 109 287 863 20 288 864 89 288 865 90 288 866 74 289 867 111 289 868 110 289 869 48 290 870 90 290 871 91 290 872 57 291 873 97 291 874 96 291 875 75 292 876 108 292 877 111 292 878 55 293 879 91 293 880 88 293 881 36 294 882 98 294 883 97 294 884 47 295 885 99 295 886 98 295 887 17 296 888 104 296 889 105 296 890 51 297 891 84 297 892 85 297 893 62 298 894 96 298 895 99 298 896 66 299 897 105 299 898 106 299 899 11 300 900 85 300 901 86 300 902 38 301 903 107 301 904 104 301 905 142 302 906 156 302 907 158 302 908 140 303 909 154 303 910 159 303 911 112 304 912 151 304 913 153 304 914 115 305 915 146 305 916 151 305 917 143 306 918 157 306 919 154 306 920 116 307 921 147 307 922 146 307 923 129 308 924 9 308 925 119 308 926 7 309 927 116 309 928 115 309 929 21 310 930 178 310 931 179 310 932 6 311 933 21 311 934 114 311 935 18 312 936 166 312 937 167 312 938 8 313 939 118 313 940 124 313 941 22 314 942 115 314 943 112 314 944 30 315 945 124 315 946 125 315 947 8 316 948 129 316 949 141 316 950 117 317 951 140 317 952 145 317 953 123 318 954 142 318 955 144 318 956 113 319 957 139 319 958 143 319 959 122 320 960 145 320 961 142 320 962 144 321 963 141 321 964 119 321 965 114 322 966 143 322 967 140 322 968 132 323 969 138 323 970 41 323 971 0 324 972 126 324 973 137 324 974 77 325 975 128 325 976 136 325 977 68 326 978 131 326 979 135 326 980 2 327 981 127 327 982 139 327 983 128 328 984 134 328 985 23 328 986 37 329 987 137 329 988 133 329 989 9 330 990 129 330 991 132 330 992 136 331 993 131 331 994 68 331 995 138 332 996 130 332 997 10 332 998 134 333 999 126 333 1000 0 333 1001 60 334 1002 135 334 1003 130 334 1004 15 335 1005 133 335 1006 127 335 1007 146 336 1008 147 336 1009 154 336 1010 149 337 1011 152 337 1012 155 337 1013 148 338 1014 150 338 1015 156 338 1016 153 339 1017 151 339 1018 146 339 1019 150 340 1020 149 340 1021 158 340 1022 147 341 1023 148 341 1024 159 341 1025 121 342 1026 148 342 1027 147 342 1028 118 343 1029 141 343 1030 155 343 1031 118 344 1032 152 344 1033 149 344 1034 143 345 1035 139 345 1036 153 345 1037 145 346 1038 159 346 1039 156 346 1040 124 347 1041 149 347 1042 150 347 1043 125 348 1044 150 348 1045 148 348 1046 141 349 1047 144 349 1048 158 349 1049 173 350 1050 165 350 1051 164 350 1052 177 351 1053 160 351 1054 167 351 1055 170 352 1056 171 352 1057 175 352 1058 183 353 1059 176 353 1060 175 353 1061 182 354 1062 177 354 1063 166 354 1064 163 355 1065 162 355 1066 179 355 1067 172 356 1068 175 356 1069 177 356 1070 171 357 1071 160 357 1072 177 357 1073 162 358 1074 176 358 1075 183 358 1076 163 359 1077 170 359 1078 176 359 1079 173 360 1080 183 360 1081 168 360 1082 172 361 1083 182 361 1084 181 361 1085 168 362 1086 183 362 1087 172 362 1088 162 363 1089 173 363 1090 180 363 1091 160 364 1092 171 364 1093 185 364 1094 171 365 1095 170 365 1096 184 365 1097 45 366 1098 182 366 1099 174 366 1100 34 367 1101 168 367 1102 169 367 1103</p>
        </triangles>
      </mesh>
    </geometry>
  </library_geometries>
  <library_visual_scenes>
    <visual_scene id="Scene" name="Scene">
      <node id="Cube" name="Cube" type="NODE">
        <matrix sid="transform">0.5 0 0 -1 0 0.5 0 0 0 0 0.5 0.5 0 0 0 1</matrix>
        <instance_geometry url="#Cube_001-mesh" name="Cube"/>
      </node>
    </visual_scene>
  </library_visual_scenes>
  <scene>
    <instance_visual_scene url="#Scene"/>
  </scene>
</COLLADA>